<svg width="32" height="35" viewBox="0 0 32 35" fill="none" xmlns="http://www.w3.org/2000/svg">
<rect y="1" width="32" height="32" fill="#F8A8D4"/>
<path d="M16.1143 4.2627H19.1992L23.5146 14.7393L27.8301 4.2627H30.915L24.8945 18H22.1348L16.1143 4.2627Z" fill="white"/>
<path d="M2.59277 25.9131C3.09082 26.1943 3.59473 26.4492 4.10449 26.6777C4.62012 26.9004 5.15332 27.0908 5.7041 27.249C6.25488 27.4014 6.83203 27.5186 7.43555 27.6006C8.04492 27.6826 8.69238 27.7236 9.37793 27.7236C10.2041 27.7236 10.9072 27.6709 11.4873 27.5654C12.0674 27.4541 12.5391 27.3047 12.9023 27.1172C13.2715 26.9238 13.5381 26.6953 13.7021 26.4316C13.8721 26.168 13.957 25.8809 13.957 25.5703C13.957 25.0723 13.749 24.6797 13.333 24.3926C12.917 24.0996 12.2754 23.9531 11.4082 23.9531C11.0273 23.9531 10.626 23.9795 10.2041 24.0322C9.78223 24.0791 9.35449 24.1318 8.9209 24.1904C8.49316 24.249 8.06836 24.3047 7.64648 24.3574C7.23047 24.4043 6.83789 24.4277 6.46875 24.4277C5.85352 24.4277 5.26172 24.3486 4.69336 24.1904C4.13086 24.0322 3.62988 23.7949 3.19043 23.4785C2.75684 23.1621 2.41113 22.7666 2.15332 22.292C1.89551 21.8174 1.7666 21.2637 1.7666 20.6309C1.7666 20.2559 1.81641 19.8838 1.91602 19.5146C2.02148 19.1455 2.18555 18.7939 2.4082 18.46C2.63672 18.1201 2.92969 17.8066 3.28711 17.5195C3.64453 17.2266 4.0752 16.9746 4.5791 16.7637C5.08887 16.5527 5.6748 16.3887 6.33691 16.2715C7.00488 16.1484 7.76367 16.0869 8.61328 16.0869C9.22852 16.0869 9.84668 16.1221 10.4678 16.1924C11.0889 16.2568 11.6924 16.3506 12.2783 16.4736C12.8701 16.5967 13.4385 16.7461 13.9834 16.9219C14.5283 17.0918 15.0352 17.2822 15.5039 17.4932L14.2822 19.7432C13.8955 19.5732 13.4795 19.418 13.0342 19.2773C12.5889 19.1309 12.123 19.0049 11.6367 18.8994C11.1504 18.7939 10.6465 18.7119 10.125 18.6533C9.60938 18.5889 9.08203 18.5566 8.54297 18.5566C7.77539 18.5566 7.14258 18.6123 6.64453 18.7236C6.15234 18.835 5.75977 18.9785 5.4668 19.1543C5.17383 19.3242 4.96875 19.5176 4.85156 19.7344C4.74023 19.9453 4.68457 20.1562 4.68457 20.3672C4.68457 20.7773 4.86914 21.1143 5.23828 21.3779C5.60742 21.6357 6.16992 21.7646 6.92578 21.7646C7.23047 21.7646 7.5791 21.7441 7.97168 21.7031C8.37012 21.6562 8.78613 21.6064 9.21973 21.5537C9.65918 21.501 10.1045 21.4541 10.5557 21.4131C11.0127 21.3662 11.4551 21.3428 11.8828 21.3428C12.6914 21.3428 13.4062 21.4336 14.0273 21.6152C14.6543 21.7969 15.1787 22.0576 15.6006 22.3975C16.0225 22.7314 16.3418 23.1387 16.5586 23.6191C16.7754 24.0938 16.8838 24.627 16.8838 25.2188C16.8838 26.0098 16.6992 26.7158 16.3301 27.3369C15.9668 27.9521 15.4453 28.4736 14.7656 28.9014C14.0918 29.3232 13.2773 29.6455 12.3223 29.8682C11.3672 30.085 10.3037 30.1934 9.13184 30.1934C8.3584 30.1934 7.60254 30.1436 6.86426 30.0439C6.12598 29.9502 5.41699 29.8154 4.7373 29.6396C4.06348 29.458 3.41895 29.2441 2.80371 28.998C2.19434 28.7461 1.62891 28.4707 1.10742 28.1719L2.59277 25.9131Z" fill="white"/>
</svg>
